<?xml version="1.0" encoding="UTF-8"?>
<svg version="1.1" xmlns="http://www.w3.org/2000/svg" width="16" height="16">
<path d="M0 0 C2.5 1.5 2.5 1.5 4 4 C4.54729661 6.78209112 4.58072977 9.22160658 4 12 C2.125 14.5 2.125 14.5 0 16 C-0.66 16 -1.32 16 -2 16 C-2 13.36 -2 10.72 -2 8 C-3.41577477 9.18424326 -3.41577477 9.18424326 -3.0625 12.5625 C-3.041875 13.696875 -3.02125 14.83125 -3 16 C-6.375 15.6875 -6.375 15.6875 -10 15 C-12.46220488 11.30669268 -12.67270703 8.2863512 -12 4 C-9.15871837 -0.73546938 -5.07616558 -0.99858995 0 0 Z " fill="#FFFFFF" transform="translate(12,0)"/>
</svg>
