<?xml version="1.0" encoding="UTF-8"?>
<svg version="1.1" xmlns="http://www.w3.org/2000/svg" width="16" height="16">
<path d="M0 0 C1.27875 0.00257812 2.5575 0.00515625 3.875 0.0078125 C5.15375 0.00523438 6.4325 0.00265625 7.75 0 C10.875 0.1328125 10.875 0.1328125 11.875 1.1328125 C11.97409302 3.46441305 12.00470504 5.79911192 12 8.1328125 C12.00386719 10.0509375 12.00386719 10.0509375 12.0078125 12.0078125 C11.875 15.1328125 11.875 15.1328125 10.875 16.1328125 C8.54339945 16.23190552 6.20870058 16.26251754 3.875 16.2578125 C2.59625 16.26039062 1.3175 16.26296875 0 16.265625 C-3.125 16.1328125 -3.125 16.1328125 -4.125 15.1328125 C-4.22409302 12.80121195 -4.25470504 10.46651308 -4.25 8.1328125 C-4.25257813 6.8540625 -4.25515625 5.5753125 -4.2578125 4.2578125 C-4.08423261 0.17357989 -4.08423261 0.17357989 0 0 Z M-2.125 3.1328125 C-2.22323937 4.79710301 -2.25473631 6.46563181 -2.25 8.1328125 C-2.25257812 9.0403125 -2.25515625 9.9478125 -2.2578125 10.8828125 C-2.37673779 13.10247861 -2.37673779 13.10247861 -1.125 14.1328125 C0.53929051 14.23105187 2.20781931 14.26254881 3.875 14.2578125 C4.7825 14.26039062 5.69 14.26296875 6.625 14.265625 C8.84466611 14.38455029 8.84466611 14.38455029 9.875 13.1328125 C9.94648199 11.78037333 9.95899454 10.42446883 9.9375 9.0703125 C9.916875 7.7709375 9.89625 6.4715625 9.875 5.1328125 C9.215 5.1328125 8.555 5.1328125 7.875 5.1328125 C7.545 7.1128125 7.215 9.0928125 6.875 11.1328125 C4.895 11.1328125 2.915 11.1328125 0.875 11.1328125 C0.875 9.1528125 0.875 7.1728125 0.875 5.1328125 C2.855 4.8028125 4.835 4.4728125 6.875 4.1328125 C6.875 3.4728125 6.875 2.8128125 6.875 2.1328125 C2.07529258 1.60447534 2.07529258 1.60447534 -2.125 3.1328125 Z M2.875 6.1328125 C2.875 7.4528125 2.875 8.7728125 2.875 10.1328125 C3.865 9.8028125 4.855 9.4728125 5.875 9.1328125 C5.545 8.1428125 5.215 7.1528125 4.875 6.1328125 C4.215 6.1328125 3.555 6.1328125 2.875 6.1328125 Z " fill="#FFFFFF" transform="translate(4.125,-0.1328125)"/>
</svg>
