<?xml version="1.0" encoding="UTF-8"?>
<svg version="1.1" xmlns="http://www.w3.org/2000/svg" width="16" height="16">
<path d="M0 0 C-0.43019508 5.37743853 -1.2218244 9.03291562 -5 13 C-8.00780443 13.90983408 -10.86590897 14.2904177 -14 14 C-14.66 13.34 -15.32 12.68 -16 12 C-15.34 11.34 -14.68 10.68 -14 10 C-14.66 9.01 -15.32 8.02 -16 7 C-16.125 3.8125 -16.125 3.8125 -16 1 C-14.02 1.66 -12.04 2.32 -10 3 C-9.649375 2.505 -9.29875 2.01 -8.9375 1.5 C-6.05625711 -0.73063966 -3.52990974 -0.19980621 0 0 Z " fill="#FFFFFF" transform="translate(16,1)"/>
</svg>
